<svg width="183" height="178" viewBox="0 0 183 178" fill="none" xmlns="http://www.w3.org/2000/svg">
<rect width="183" height="178" fill="url(#paint0_linear_70_147)"/>
<path d="M27.24 42.8H20.36V36.12H43.68V42.8H36.8V64H27.24V42.8ZM58.63 52.28C58.63 50.92 58.0433 50.24 56.87 50.24C55.9367 50.24 55.0967 50.6267 54.35 51.4V64H45.23V35.32H54.35V47.4C55.31 45.7733 56.3633 44.64 57.51 44C58.6567 43.36 60.07 43.04 61.75 43.04C63.51 43.04 64.95 43.5867 66.07 44.68C67.19 45.7733 67.75 47.44 67.75 49.68V64H58.63V52.28ZM81.6216 64.6C77.6482 64.6 74.6749 63.72 72.7016 61.96C70.7549 60.2 69.7816 57.4933 69.7816 53.84C69.7816 51.7333 70.1682 49.8667 70.9416 48.24C71.7416 46.6133 72.9416 45.3467 74.5416 44.44C76.1682 43.5067 78.2082 43.04 80.6616 43.04C84.1282 43.04 86.6349 43.92 88.1816 45.68C89.7549 47.44 90.5416 49.8267 90.5416 52.84C90.5416 53.4267 90.5149 53.9733 90.4616 54.48C90.4082 54.9867 90.3682 55.3733 90.3416 55.64H78.6216C78.6749 56.7333 79.0349 57.4933 79.7016 57.92C80.3682 58.3467 81.3816 58.56 82.7416 58.56C83.7549 58.56 84.8082 58.4667 85.9016 58.28C87.0216 58.0933 88.2882 57.7333 89.7016 57.2V62.88C88.6616 63.4133 87.4216 63.8267 85.9816 64.12C84.5416 64.44 83.0882 64.6 81.6216 64.6ZM78.6216 51.68V51.96H82.7016V51.8C82.7016 50.7333 82.5549 49.9467 82.2616 49.44C81.9682 48.9333 81.4749 48.68 80.7816 48.68C80.0349 48.68 79.4882 48.92 79.1416 49.4C78.7949 49.8533 78.6216 50.6133 78.6216 51.68Z" fill="white"/>
<path d="M28.28 78.12H41.44L49.96 106H40.24L38.84 100.4H30.56L29.16 106H19.88L28.28 78.12ZM32.04 94.52H37.4L34.72 83.44L32.04 94.52ZM48.8384 85.64H52.0784V84.64C52.0784 82.0267 52.7051 80.0533 53.9584 78.72C55.2118 77.3867 57.2651 76.72 60.1184 76.72C61.2118 76.72 62.3184 76.84 63.4384 77.08C64.5851 77.32 65.3984 77.6133 65.8784 77.96V83.32C65.5851 83.1867 65.1984 83.0667 64.7184 82.96C64.2384 82.8533 63.7051 82.8 63.1184 82.8C61.7318 82.8 61.0384 83.4133 61.0384 84.64V85.64H65.3584V91.48H61.0384V106H52.0784V91.48H48.8384V85.64ZM67.2222 85.64H75.3822L76.1022 90.12C76.4222 88.4933 76.9022 87.2267 77.5422 86.32C78.1822 85.4133 79.2089 84.96 80.6222 84.96C81.1022 84.96 81.5822 85.0267 82.0622 85.16C82.5422 85.2933 82.9155 85.4667 83.1822 85.68V93.12C82.6489 92.9067 82.1022 92.7467 81.5422 92.64C80.9822 92.5333 80.3955 92.48 79.7822 92.48C78.6889 92.48 77.8355 92.7867 77.2222 93.4C76.6355 94.0133 76.3422 94.92 76.3422 96.12V106H67.2222V85.64ZM89.79 83.68C88.1633 83.68 86.91 83.3333 86.03 82.64C85.1767 81.92 84.75 80.9067 84.75 79.6C84.75 78.2933 85.1767 77.2933 86.03 76.6C86.91 75.88 88.1633 75.52 89.79 75.52C91.4167 75.52 92.6567 75.88 93.51 76.6C94.39 77.2933 94.83 78.2933 94.83 79.6C94.83 80.9067 94.39 81.92 93.51 82.64C92.6567 83.3333 91.4167 83.68 89.79 83.68ZM85.23 85.64H94.35V106H85.23V85.64ZM107.14 106.6C103.727 106.6 101.1 105.653 99.2603 103.76C97.4203 101.84 96.5003 99.1867 96.5003 95.8C96.5003 92.4133 97.4203 89.7733 99.2603 87.88C101.1 85.9867 103.727 85.04 107.14 85.04C108.447 85.04 109.74 85.2 111.02 85.52C112.3 85.84 113.274 86.24 113.94 86.72V92.36C113.3 92.0667 112.567 91.8267 111.74 91.64C110.94 91.4267 110.154 91.32 109.38 91.32C108.074 91.32 107.1 91.64 106.46 92.28C105.847 92.8933 105.54 94.0667 105.54 95.8C105.54 97.5333 105.847 98.72 106.46 99.36C107.1 100 108.074 100.32 109.38 100.32C110.154 100.32 110.94 100.227 111.74 100.04C112.567 99.8267 113.3 99.5733 113.94 99.28V104.92C113.274 105.4 112.3 105.8 111.02 106.12C109.74 106.44 108.447 106.6 107.14 106.6ZM122.045 106.52C120.071 106.52 118.458 105.987 117.205 104.92C115.951 103.827 115.325 102.333 115.325 100.44C115.325 99.16 115.565 98.0933 116.045 97.24C116.525 96.36 117.338 95.6533 118.485 95.12C119.631 94.56 121.205 94.12 123.205 93.8C123.765 93.72 124.418 93.64 125.165 93.56C125.911 93.48 126.645 93.4267 127.365 93.4V93.16C127.365 92.4133 127.151 91.9067 126.725 91.64C126.325 91.3467 125.645 91.2 124.685 91.2C123.485 91.2 122.218 91.3467 120.885 91.64C119.551 91.9067 118.218 92.2933 116.885 92.8V86.96C118.191 86.3467 119.658 85.88 121.285 85.56C122.938 85.2133 124.525 85.04 126.045 85.04C129.618 85.04 132.138 85.6667 133.605 86.92C135.071 88.1733 135.805 90.1867 135.805 92.96V106H128.405L127.805 103.24C127.245 104.227 126.511 105.027 125.605 105.64C124.698 106.227 123.511 106.52 122.045 106.52ZM123.685 99.2C123.685 100.293 124.285 100.84 125.485 100.84C126.258 100.84 126.885 100.627 127.365 100.2V97.08C126.991 97.1067 126.605 97.16 126.205 97.24C125.831 97.2933 125.458 97.3733 125.085 97.48C124.151 97.7467 123.685 98.32 123.685 99.2ZM151.989 94.28C151.989 92.92 151.403 92.24 150.229 92.24C149.296 92.24 148.456 92.6267 147.709 93.4V106H138.589V85.64H146.709L147.469 89.32C148.456 87.72 149.536 86.6133 150.709 86C151.883 85.36 153.323 85.04 155.029 85.04C156.843 85.04 158.309 85.5867 159.429 86.68C160.549 87.7733 161.109 89.44 161.109 91.68V106H151.989V94.28Z" fill="white"/>
<path d="M21.92 120.12H34.32C37.2533 120.12 39.5067 120.52 41.08 121.32C42.68 122.12 43.7867 123.253 44.4 124.72C45.04 126.16 45.36 127.84 45.36 129.76C45.36 131.707 45.04 133.413 44.4 134.88C43.76 136.32 42.6533 137.453 41.08 138.28C39.5067 139.08 37.2933 139.48 34.44 139.48H31.48V148H21.92V120.12ZM33.36 133.68C34.2667 133.68 34.9467 133.347 35.4 132.68C35.88 131.987 36.12 131.013 36.12 129.76C36.12 127.2 35.2 125.92 33.36 125.92H31.48V133.68H33.36ZM47.1441 119.32H56.2641V148H47.1441V119.32ZM64.9744 148.52C63.001 148.52 61.3877 147.987 60.1344 146.92C58.881 145.827 58.2544 144.333 58.2544 142.44C58.2544 141.16 58.4944 140.093 58.9744 139.24C59.4544 138.36 60.2677 137.653 61.4144 137.12C62.561 136.56 64.1344 136.12 66.1344 135.8C66.6944 135.72 67.3477 135.64 68.0944 135.56C68.841 135.48 69.5744 135.427 70.2944 135.4V135.16C70.2944 134.413 70.081 133.907 69.6544 133.64C69.2544 133.347 68.5744 133.2 67.6144 133.2C66.4144 133.2 65.1477 133.347 63.8144 133.64C62.481 133.907 61.1477 134.293 59.8144 134.8V128.96C61.121 128.347 62.5877 127.88 64.2144 127.56C65.8677 127.213 67.4544 127.04 68.9744 127.04C72.5477 127.04 75.0677 127.667 76.5344 128.92C78.001 130.173 78.7344 132.187 78.7344 134.96V148H71.3344L70.7344 145.24C70.1744 146.227 69.441 147.027 68.5344 147.64C67.6277 148.227 66.441 148.52 64.9744 148.52ZM66.6144 141.2C66.6144 142.293 67.2144 142.84 68.4144 142.84C69.1877 142.84 69.8144 142.627 70.2944 142.2V139.08C69.921 139.107 69.5344 139.16 69.1344 139.24C68.761 139.293 68.3877 139.373 68.0144 139.48C67.081 139.747 66.6144 140.32 66.6144 141.2ZM91.3591 148.6C87.9457 148.6 85.3191 147.653 83.4791 145.76C81.6391 143.84 80.7191 141.187 80.7191 137.8C80.7191 134.413 81.6391 131.773 83.4791 129.88C85.3191 127.987 87.9457 127.04 91.3591 127.04C92.6657 127.04 93.9591 127.2 95.2391 127.52C96.5191 127.84 97.4924 128.24 98.1591 128.72V134.36C97.5191 134.067 96.7857 133.827 95.9591 133.64C95.1591 133.427 94.3724 133.32 93.5991 133.32C92.2924 133.32 91.3191 133.64 90.6791 134.28C90.0657 134.893 89.7591 136.067 89.7591 137.8C89.7591 139.533 90.0657 140.72 90.6791 141.36C91.3191 142 92.2924 142.32 93.5991 142.32C94.3724 142.32 95.1591 142.227 95.9591 142.04C96.7857 141.827 97.5191 141.573 98.1591 141.28V146.92C97.4924 147.4 96.5191 147.8 95.2391 148.12C93.9591 148.44 92.6657 148.6 91.3591 148.6ZM111.387 148.6C107.414 148.6 104.441 147.72 102.467 145.96C100.521 144.2 99.5472 141.493 99.5472 137.84C99.5472 135.733 99.9339 133.867 100.707 132.24C101.507 130.613 102.707 129.347 104.307 128.44C105.934 127.507 107.974 127.04 110.427 127.04C113.894 127.04 116.401 127.92 117.947 129.68C119.521 131.44 120.307 133.827 120.307 136.84C120.307 137.427 120.281 137.973 120.227 138.48C120.174 138.987 120.134 139.373 120.107 139.64H108.387C108.441 140.733 108.801 141.493 109.467 141.92C110.134 142.347 111.147 142.56 112.507 142.56C113.521 142.56 114.574 142.467 115.667 142.28C116.787 142.093 118.054 141.733 119.467 141.2V146.88C118.427 147.413 117.187 147.827 115.747 148.12C114.307 148.44 112.854 148.6 111.387 148.6ZM108.387 135.68V135.96H112.467V135.8C112.467 134.733 112.321 133.947 112.027 133.44C111.734 132.933 111.241 132.68 110.547 132.68C109.801 132.68 109.254 132.92 108.907 133.4C108.561 133.853 108.387 134.613 108.387 135.68ZM130.855 148.6C129.815 148.6 128.735 148.507 127.615 148.32C126.495 148.16 125.455 147.933 124.495 147.64C123.535 147.32 122.775 146.947 122.215 146.52V140.68C123.335 141.32 124.561 141.827 125.895 142.2C127.255 142.573 128.615 142.76 129.975 142.76C131.281 142.76 131.935 142.413 131.935 141.72C131.935 141.347 131.788 141.107 131.495 141C131.201 140.867 130.655 140.733 129.855 140.6C127.775 140.307 126.161 139.933 125.015 139.48C123.868 139.027 123.068 138.387 122.615 137.56C122.188 136.733 121.975 135.587 121.975 134.12C121.975 131.773 122.748 130.013 124.295 128.84C125.841 127.64 128.281 127.04 131.615 127.04C132.841 127.04 134.135 127.187 135.495 127.48C136.855 127.747 137.948 128.093 138.775 128.52V134.24C137.841 133.84 136.775 133.52 135.575 133.28C134.401 133.04 133.321 132.92 132.335 132.92C131.508 132.92 130.908 133.013 130.535 133.2C130.188 133.36 130.015 133.613 130.015 133.96C130.015 134.307 130.161 134.547 130.455 134.68C130.748 134.813 131.295 134.947 132.095 135.08C134.175 135.373 135.775 135.747 136.895 136.2C138.041 136.653 138.841 137.293 139.295 138.12C139.748 138.947 139.975 140.107 139.975 141.6C139.975 143.92 139.241 145.667 137.775 146.84C136.335 148.013 134.028 148.6 130.855 148.6ZM146.504 148.44C144.957 148.44 143.744 148.053 142.864 147.28C141.984 146.48 141.544 145.427 141.544 144.12C141.544 142.813 141.984 141.773 142.864 141C143.744 140.2 144.957 139.8 146.504 139.8C148.051 139.8 149.264 140.2 150.144 141C151.024 141.773 151.464 142.813 151.464 144.12C151.464 145.427 151.024 146.48 150.144 147.28C149.264 148.053 148.051 148.44 146.504 148.44Z" fill="white"/>
<defs>
<linearGradient id="paint0_linear_70_147" x1="91.5" y1="0" x2="91.5" y2="178" gradientUnits="userSpaceOnUse">
<stop stop-color="#1081ED"/>
<stop offset="1" stop-color="#094987"/>
</linearGradient>
</defs>
</svg>
